<?xml version="1.0" encoding="utf-8"?>
<svg xmlns="http://www.w3.org/2000/svg" viewBox="10.0001 40 420 419.9999" width="420px" height="420px" preserveAspectRatio="none"><g transform="matrix(3.240665912628174, 0, 0, 3.240614891052246, -1072.7841796875, -591.1453247070312)" id="object-0"><path style="fill:#FCB25B;" d="M463.727,259.563c0,35.789-29.012,64.803-64.801,64.803c-35.789,0-64.802-29.014-64.802-64.803 s29.013-64.802,64.802-64.802C434.715,194.761,463.727,223.773,463.727,259.563z"/><g><path style="fill:#FFFFFF;" d="M447.185,238.214c-10.382-13.725-25.865-1.757-25.865-1.757s2.639-17.949-17.597-19.533 c-20.234-1.584-24.282,15.658-24.282,15.658s-32.094-10.043-32.554,14.751c-0.402,21.667,26.57,24.84,26.57,24.84l1.232,28.506 c0,0,20.06-13.55,57.187-1.584l-1.056-29.033C444.721,266.543,457.566,251.939,447.185,238.214z"/><g><defs><path id="SVGID_00000116948970640671975990000002766184847162367145_" d="M447.185,238.214 c-10.382-13.725-25.865-1.757-25.865-1.757s2.639-17.949-17.597-19.533c-20.234-1.584-24.282,15.658-24.282,15.658 s-32.094-10.043-32.554,14.751c-0.402,21.667,26.57,24.84,26.57,24.84l1.232,28.506c0,0,20.06-13.55,57.187-1.584 l-1.056-29.033C444.721,266.543,457.566,251.939,447.185,238.214z"/></defs><clipPath id="SVGID_00000008842057863911627300000010187643461050580111_"><path d="M447.185,238.214 c-10.382-13.725-25.865-1.757-25.865-1.757s2.639-17.949-17.597-19.533c-20.234-1.584-24.282,15.658-24.282,15.658 s-32.094-10.043-32.554,14.751c-0.402,21.667,26.57,24.84,26.57,24.84l1.232,28.506c0,0,20.06-13.55,57.187-1.584 l-1.056-29.033C444.721,266.543,457.566,251.939,447.185,238.214z" style="overflow: visible;"/></clipPath><g style="clip-path:url(#SVGID_00000008842057863911627300000010187643461050580111_);"><g><path style="fill:#FCB25B;" d="M380.364,230.238c0,0-0.025,0.057-0.07,0.165c-0.041,0.102-0.066,0.215-0.122,0.378 c-0.061,0.14-0.1,0.404-0.159,0.668c-0.063,0.269-0.128,0.576-0.153,0.932c-0.036,0.352-0.076,0.732-0.118,1.135 c-0.005,0.412-0.01,0.846-0.015,1.296c-0.018,0.45-0.008,0.916,0.045,1.393c0.037,0.477,0.075,0.961,0.113,1.446 c0.068,0.971,0.29,1.933,0.417,2.843c0.081,0.453,0.125,0.897,0.24,1.306c0.099,0.412,0.192,0.801,0.279,1.16 c0.347,1.439,0.577,2.399,0.577,2.399l0.009,0.037c0.071,0.294-0.109,0.589-0.403,0.66 c-0.284,0.068-0.569-0.099-0.652-0.374c0,0-0.291-0.964-0.728-2.411c-0.109-0.362-0.228-0.754-0.353-1.169 c-0.141-0.411-0.213-0.866-0.323-1.328c-0.185-0.932-0.467-1.908-0.599-2.921c-0.068-0.506-0.138-1.013-0.205-1.512 c-0.082-0.497-0.121-0.993-0.131-1.48c-0.022-0.485-0.043-0.954-0.063-1.398c0.021-0.451,0.041-0.878,0.059-1.272 c0.007-0.393,0.061-0.761,0.116-1.088c0.057-0.332,0.078-0.598,0.162-0.871c0.068-0.255,0.127-0.475,0.167-0.591 c0.039-0.11,0.061-0.169,0.061-0.169c0.188-0.52,0.762-0.788,1.282-0.6c0.52,0.188,0.788,0.762,0.6,1.282 c-0.006,0.017-0.013,0.033-0.02,0.05L380.364,230.238z"/></g><g><path style="fill:#FCB25B;" d="M423.57,233.885c0,0-0.185,0.235-0.507,0.647c-0.157,0.206-0.366,0.457-0.573,0.742 c-0.178,0.282-0.38,0.601-0.6,0.949c-0.236,0.332-0.423,0.773-0.655,1.201c-0.242,0.428-0.432,0.914-0.641,1.411 c-0.226,0.491-0.389,1.027-0.575,1.566c-0.201,0.534-0.317,1.106-0.482,1.664c-0.279,1.13-0.497,2.281-0.636,3.372 c-0.148,1.09-0.22,2.118-0.259,2.999c-0.035,0.881-0.034,1.618-0.018,2.13c0.012,0.516,0.036,0.795,0.036,0.795 c0.022,0.261-0.171,0.49-0.432,0.513c-0.252,0.021-0.475-0.161-0.51-0.407c0,0-0.044-0.315-0.085-0.844 c-0.047-0.532-0.09-1.29-0.104-2.201c-0.01-0.911,0.006-1.976,0.097-3.116c0.082-1.14,0.242-2.354,0.471-3.56 c0.14-0.598,0.232-1.207,0.413-1.789c0.166-0.585,0.311-1.166,0.522-1.71c0.195-0.548,0.374-1.083,0.609-1.566 c0.231-0.488,0.4-0.957,0.658-1.377c0.239-0.423,0.459-0.81,0.653-1.153c0.203-0.316,0.389-0.564,0.537-0.783 c0.3-0.429,0.471-0.674,0.471-0.674c0.316-0.453,0.939-0.564,1.393-0.248c0.453,0.316,0.564,0.94,0.248,1.393 C423.594,233.854,423.581,233.871,423.57,233.885z"/></g><g><path style="fill:#FCB25B;" d="M380.027,269.603c0,0-0.109-0.033-0.314-0.095c-0.221-0.066-0.53-0.171-0.901-0.311 c-0.383-0.129-0.822-0.33-1.338-0.538c-0.498-0.244-1.079-0.479-1.672-0.815c-0.299-0.162-0.611-0.33-0.934-0.505 c-0.312-0.193-0.634-0.394-0.966-0.6c-0.675-0.389-1.313-0.918-2.009-1.402c-0.64-0.563-1.351-1.084-1.966-1.734 c-0.313-0.319-0.629-0.64-0.946-0.962c-0.314-0.323-0.579-0.697-0.87-1.044c-0.6-0.684-1.085-1.452-1.561-2.207 c-0.522-0.727-0.836-1.559-1.23-2.307c-0.093-0.19-0.185-0.379-0.276-0.566c-0.068-0.196-0.137-0.391-0.205-0.583 c-0.134-0.384-0.266-0.76-0.394-1.126c-0.292-0.721-0.411-1.446-0.56-2.104c-0.123-0.661-0.319-1.254-0.343-1.802 c-0.052-0.543-0.096-1.017-0.133-1.406c-0.072-0.778-0.113-1.223-0.113-1.223c-0.024-0.265,0.17-0.5,0.435-0.524 c0.258-0.024,0.488,0.161,0.521,0.416l0.008,0.057c0,0,0.057,0.426,0.154,1.172c0.049,0.373,0.107,0.825,0.176,1.343 c0.039,0.523,0.252,1.081,0.391,1.706c0.164,0.619,0.299,1.303,0.603,1.973c0.134,0.34,0.271,0.69,0.411,1.048 c0.069,0.179,0.14,0.358,0.211,0.541l0.28,0.521c0.399,0.688,0.713,1.456,1.231,2.116c0.471,0.688,0.945,1.389,1.531,2.004 c0.284,0.313,0.539,0.652,0.845,0.942c0.307,0.289,0.611,0.577,0.914,0.863c0.592,0.585,1.28,1.046,1.89,1.549 c0.67,0.427,1.276,0.899,1.923,1.238c0.315,0.181,0.622,0.355,0.919,0.525c0.307,0.151,0.604,0.298,0.888,0.438 c0.563,0.295,1.112,0.49,1.58,0.701c0.482,0.173,0.897,0.346,1.247,0.448c0.351,0.118,0.616,0.195,0.79,0.241 c0.19,0.051,0.292,0.077,0.292,0.077l0.033,0.009c0.534,0.141,0.854,0.688,0.713,1.222c-0.14,0.534-0.688,0.854-1.222,0.713 C380.052,269.61,380.037,269.606,380.027,269.603z"/></g><g><path style="fill:#FCB25B;" d="M398.913,264.628c0,0,0.098-0.108,0.213-0.262c0.121-0.145,0.318-0.434,0.553-0.779 c0.227-0.362,0.504-0.802,0.777-1.341c0.3-0.521,0.558-1.16,0.859-1.842c0.262-0.702,0.565-1.457,0.785-2.293 c0.273-0.819,0.434-1.721,0.64-2.643c0.155-0.932,0.301-1.903,0.393-2.895c0.037-0.998,0.177-2.007,0.122-3.026 c-0.022-1.017,0.001-2.037-0.125-3.036c-0.104-0.999-0.141-1.991-0.331-2.934c-0.165-0.945-0.293-1.865-0.47-2.728 c-0.205-0.858-0.4-1.669-0.58-2.417c-0.162-0.753-0.362-1.431-0.561-2.026c-0.187-0.599-0.351-1.12-0.485-1.55 c-0.27-0.86-0.423-1.351-0.423-1.351l-0.013-0.04c-0.104-0.334,0.082-0.69,0.416-0.794c0.329-0.103,0.68,0.077,0.79,0.402 c0,0,0.168,0.498,0.462,1.369c0.148,0.436,0.325,0.965,0.53,1.571c0.216,0.604,0.436,1.292,0.62,2.061 c0.201,0.764,0.419,1.592,0.648,2.468c0.202,0.883,0.355,1.829,0.546,2.8c0.217,0.968,0.279,1.996,0.41,3.03 c0.151,1.033,0.153,2.097,0.198,3.159c0.078,1.061-0.039,2.127-0.059,3.175c-0.073,1.046-0.203,2.076-0.348,3.067 c-0.196,0.985-0.349,1.947-0.62,2.833c-0.217,0.899-0.523,1.724-0.792,2.488c-0.31,0.75-0.578,1.447-0.895,2.034 c-0.288,0.598-0.588,1.101-0.836,1.516c-0.267,0.413-0.466,0.721-0.65,0.956c-0.164,0.211-0.252,0.323-0.252,0.323 c-0.341,0.436-0.97,0.513-1.405,0.173c-0.436-0.34-0.513-0.969-0.173-1.404c0.014-0.019,0.028-0.035,0.043-0.052 L398.913,264.628z"/></g><g><path style="fill:#FCB25B;" d="M419.298,266.731c0.017-0.01,0.308-0.126,0.862-0.41c0.551-0.277,1.337-0.702,2.244-1.274 c0.458-0.28,0.943-0.601,1.445-0.959c0.516-0.339,1.015-0.755,1.556-1.156c0.515-0.431,1.058-0.868,1.575-1.348 c0.508-0.49,1.051-0.965,1.524-1.504c0.498-0.518,0.978-1.052,1.408-1.612c0.462-0.538,0.862-1.107,1.237-1.666 c0.401-0.544,0.726-1.107,1.026-1.647c0.319-0.531,0.599-1.045,0.806-1.544c0.222-0.492,0.441-0.938,0.607-1.344 c0.144-0.415,0.269-0.777,0.372-1.075c0.207-0.597,0.326-0.939,0.326-0.939l0.014-0.04c0.075-0.217,0.311-0.332,0.528-0.256 c0.21,0.073,0.324,0.298,0.263,0.509c0,0-0.105,0.36-0.288,0.989c-0.092,0.315-0.204,0.698-0.333,1.137 c-0.15,0.432-0.355,0.906-0.561,1.431c-0.192,0.532-0.456,1.083-0.761,1.653c-0.287,0.581-0.599,1.188-0.989,1.777 c-0.363,0.607-0.755,1.223-1.209,1.81c-0.424,0.611-0.898,1.196-1.394,1.765c-0.471,0.591-1.012,1.115-1.521,1.657 c-0.519,0.53-1.064,1.017-1.584,1.497c-0.544,0.449-1.051,0.913-1.574,1.297c-0.509,0.402-1.004,0.766-1.473,1.086 c-0.929,0.651-1.74,1.143-2.322,1.475c-0.288,0.165-0.525,0.294-0.696,0.381c-0.16,0.082-0.245,0.126-0.245,0.126 c-0.489,0.249-1.087,0.056-1.337-0.433c-0.235-0.459-0.078-1.016,0.347-1.288L419.298,266.731z"/></g><g><path style="fill:#FCB25B;" d="M370.737,280.98c0,0,0.104-0.083,0.3-0.236c0.208-0.165,0.5-0.373,0.875-0.643 c0.381-0.254,0.833-0.581,1.376-0.909c0.534-0.344,1.15-0.706,1.828-1.087c1.36-0.757,2.978-1.58,4.771-2.319 c0.89-0.388,1.826-0.74,2.786-1.076c0.949-0.368,1.95-0.628,2.934-0.942c0.989-0.295,1.999-0.512,2.982-0.767 c0.992-0.215,1.977-0.386,2.925-0.572c0.953-0.157,1.883-0.257,2.759-0.379c0.875-0.14,1.715-0.148,2.483-0.219 c0.771-0.044,1.476-0.131,2.103-0.117c0.627-0.006,1.174-0.011,1.624-0.015c0.9-0.009,1.414-0.014,1.414-0.014 c0.411-0.003,0.747,0.327,0.751,0.738c0.003,0.406-0.32,0.74-0.725,0.75l-0.048,0.002c0,0-0.5,0.012-1.376,0.034 c-0.438,0.011-0.97,0.024-1.58,0.039c-0.61-0.005-1.294,0.093-2.042,0.147c-0.746,0.08-1.562,0.1-2.408,0.25 c-0.849,0.133-1.749,0.243-2.67,0.41c-0.916,0.195-1.867,0.375-2.824,0.598c-0.947,0.263-1.921,0.487-2.872,0.788 c-0.945,0.318-1.909,0.583-2.818,0.954c-0.922,0.338-1.819,0.691-2.669,1.079c-1.716,0.738-3.257,1.555-4.545,2.298 c-0.643,0.375-1.225,0.729-1.726,1.063c-0.512,0.32-0.929,0.634-1.283,0.877c-0.342,0.255-0.615,0.455-0.777,0.589 c-0.176,0.143-0.271,0.219-0.271,0.219l-0.027,0.022c-0.429,0.349-1.059,0.283-1.406-0.146 c-0.349-0.429-0.282-1.059,0.146-1.406C370.727,280.987,370.734,280.982,370.737,280.98z"/></g><path style="fill:none;stroke:#FCB25B;stroke-width:2;stroke-linecap:round;stroke-linejoin:round;stroke-miterlimit:10;" d=" M433.188,271.41c0,0-40.897-15.196-61.156,2.25"/></g></g></g></g></svg>